<svg xmlns="http://www.w3.org/2000/svg"  viewBox="0 0 64 64" width="128px" height="128px"><linearGradient id="RimeRoYFve2GZxEFqBfc_g" x1="31" x2="31" y1="48.405" y2="15" gradientUnits="userSpaceOnUse"><stop offset="0" stop-color="#e6abff"/><stop offset="1" stop-color="#6dc7ff"/></linearGradient><path fill="url(#RimeRoYFve2GZxEFqBfc_g)" d="M24,25.405c0-1.512,0.193-2.987,0.577-4.41C20.516,23.75,18,28.387,18,33.405 c0,8.271,6.729,15,15,15c5.019,0,9.655-2.516,12.41-6.577c-1.423,0.383-2.897,0.577-4.41,0.577 C31.626,42.405,24,34.779,24,25.405z M47.214,31.786L46.5,30l-0.714,1.786L44,32.5l1.786,0.714L46.5,35l0.714-1.786L49,32.5 L47.214,31.786z M37.429,34.571L38,36l0.571-1.429L40,34l-1.429-0.571L38,32l-0.571,1.429L36,34L37.429,34.571z M30,27 l0.571-1.429L32,25l-1.429-0.571L30,23l-0.571,1.429L28,25l1.429,0.571L30,27z M35.5,30l0.429-1.071L37,28.5l-1.071-0.429 L35.5,27l-0.429,1.071L34,28.5l1.071,0.429L35.5,30z M43.5,24l0.429-1.071L45,22.5l-1.071-0.429L43.5,21l-0.429,1.071L42,22.5 l1.071,0.429L43.5,24z M31.5,18l0.429-1.071L33,16.5l-1.071-0.429L31.5,15l-0.429,1.071L30,16.5l1.071,0.429L31.5,18z M14.5,27 l0.429-1.071L16,25.5l-1.071-0.429L14.5,24l-0.429,1.071L13,25.5l1.071,0.429L14.5,27z M15,39l-0.571,1.429L13,41l1.429,0.571 L15,43l0.571-1.429L17,41l-1.429-0.571L15,39z"/><linearGradient id="RimeRoYFve2GZxEFqBfc_h" x1="32" x2="32" y1="7.995" y2="55" gradientUnits="userSpaceOnUse"><stop offset="0" stop-color="#1a6dff"/><stop offset="1" stop-color="#c822ff"/></linearGradient><path fill="url(#RimeRoYFve2GZxEFqBfc_h)" d="M11,25.397c0-1.572,0.837-3.05,2.185-3.859l16.5-9.9c1.428-0.856,3.203-0.856,4.631,0 l16.5,9.9C52.163,22.347,53,23.825,53,25.397V45h3V25.397c0-2.62-1.396-5.084-3.642-6.431l-16.5-9.9 c-2.379-1.428-5.338-1.428-7.717,0l-16.5,9.9C9.396,20.313,8,22.777,8,25.397V45h3V25.397z M58,47v-1H42.867 c1.286-1.008,2.427-2.22,3.37-3.61c0.235-0.346,0.229-0.801-0.013-1.142c-0.242-0.341-0.675-0.494-1.074-0.386 c-1.336,0.36-2.732,0.542-4.15,0.542c-8.822,0-16-7.178-16-16c0-1.418,0.183-2.815,0.543-4.15c0.108-0.403-0.045-0.832-0.386-1.075 c-0.34-0.243-0.796-0.248-1.142-0.013C19.623,23.147,17,28.096,17,33.405c0,5.114,2.421,9.664,6.167,12.595H6v1h5v1H6v1h6v1H7v1h11 v1h-5v1h13v1h-3v1h18v-1h-3v-1h13v-1h-5v-1h11v-1h-5v-1h6v-1h-5v-1H58z M26.927,46C22.245,43.733,19,38.947,19,33.405 c0-3.752,1.497-7.298,4.099-9.897C23.033,24.135,23,24.768,23,25.405c0,9.925,8.075,18,18,18c0.637,0,1.271-0.033,1.897-0.098 c-1.115,1.116-2.412,2.014-3.818,2.693H26.927z"/></svg>